<?xml version="1.0" standalone="no"?>
<svg viewBox="0 0 200 200" xmlns="http://www.w3.org/2000/svg">
  <path fill="#7979FF" d="M45.9,-68.4C60.3,-62.2,73.3,-50.8,76.8,-36.9C80.4,-23,74.6,-6.5,70.1,8.6C65.7,23.7,62.5,37.6,55.3,50.4C48.1,63.2,36.8,75,23.5,78C10.2,81,-5.1,75.3,-20,70.1C-35,64.8,-49.5,60.2,-58.3,50.3C-67,40.5,-70.1,25.5,-69.2,11.8C-68.3,-2,-63.6,-14.4,-54.8,-21.5C-46.1,-28.6,-33.4,-30.4,-23.6,-38.6C-13.8,-46.8,-6.9,-61.5,4.4,-68.4C15.8,-75.3,31.6,-74.5,45.9,-68.4Z" transform="translate(100 100)" />
</svg>
