<svg id="logo" data-name="Content" xmlns="http://www.w3.org/2000/svg" viewBox="0 0 342.8 100">
    <g class="logo-wordmark">
    <g>
    <path class="logo-wordmark--my" fill="#313066" d="M165.693,29.45193a13.90308,13.90308,0,0,1,10.74211,4.39794q4.04634,4.39708,4.0472,11.71351V68.56915a.88889.88889,0,0,1-.88889.88889h-9.8979a.88889.88889,0,0,1-.88889-.88889V46.57432a7.03412,7.03412,0,0,0-1.439-4.66959,5.14255,5.14255,0,0,0-4.16412-1.71241,5.46458,5.46458,0,0,0-4.4753,1.94624,8.23341,8.23341,0,0,0-1.5955,5.37105V68.56915a.88889.88889,0,0,1-.88889.88889h-9.89791a.88889.88889,0,0,1-.88889-.88889V46.57432a7.03412,7.03412,0,0,0-1.439-4.66959,5.14254,5.14254,0,0,0-4.16412-1.71241,5.46459,5.46459,0,0,0-4.4753,1.94624,8.23376,8.23376,0,0,0-1.59722,5.37105V68.56915a.88889.88889,0,0,1-.88889.88889h-9.89618a.88889.88889,0,0,1-.88889-.88889V31.43085a.88889.88889,0,0,1,.88889-.88889h9.89618a.88889.88889,0,0,1,.88889.88889v2.69067q3.19272-4.67044,10.43092-4.66959,6.7697,0,10.19538,5.13723Q157.98711,29.45193,165.693,29.45193Z"></path>
    <path class="logo-wordmark--my" fill="#313066" d="M210.94813,30.542h10.54a.88888.88888,0,0,1,.83831,1.18445l-12.8914,36.56423q-3.26751,9.18359-8.59988,13.15427-5.04906,3.7575-12.71152,3.60864a.89706.89706,0,0,1-.87084-.89558v-9.1616a.89559.89559,0,0,1,.87155-.88635,10.4611,10.4611,0,0,0,5.3557-1.42144,9.89236,9.89236,0,0,0,3.50219-5.02032L182.00684,31.7731a.88889.88889,0,0,1,.82036-1.23114h10.886a.8889.8889,0,0,1,.83562.58578l8.42693,23.23151,7.12271-23.18939A.88889.88889,0,0,1,210.94813,30.542Z"></path>
    </g>
    <g>
    <path class="logo-wordmark--urls" fill="#7b79ff" d="M252.44224,30.542h9.89791a.88889.88889,0,0,1,.88889.88889v37.1383a.88889.88889,0,0,1-.88889.88889h-9.89791a.88889.88889,0,0,1-.88889-.88889V65.79939q-3.50218,4.75039-11.129,4.74868A13.90041,13.90041,0,0,1,230.033,66.267q-4.165-4.281-4.16412-11.83042V31.43085a.88889.88889,0,0,1,.88889-.88889h9.89791a.88889.88889,0,0,1,.88889.88889V52.72421a6.93675,6.93675,0,0,0,1.90669,5.25414,6.73808,6.73808,0,0,0,4.86386,1.82761,6.99508,6.99508,0,0,0,5.29369-2.0236q1.94451-2.0219,1.94451-5.99172V31.43085A.88889.88889,0,0,1,252.44224,30.542Z"></path>
    <path class="logo-wordmark--urls" fill="#7b79ff" d="M279.51882,37.469a9.569,9.569,0,0,1,4.39794-5.72179,13.78454,13.78454,0,0,1,6.35478-1.95657.88847.88847,0,0,1,.92294.89424V41.98963a.89716.89716,0,0,1-.99827.8797,11.60589,11.60589,0,0,0-6.97921,1.5662q-3.69819,2.1405-3.69819,7.43248V68.56915a.88889.88889,0,0,1-.88889.88889h-9.89619a.88889.88889,0,0,1-.88889-.88889V31.43085a.88889.88889,0,0,1,.88889-.88889h9.89619a.88889.88889,0,0,1,.88889.88889Z"></path>
    <path class="logo-wordmark--urls" fill="#7b79ff" d="M295.36336,68.56915V13.52791a.88888.88888,0,0,1,.88888-.88889h9.89619a.88889.88889,0,0,1,.88889.88889V68.56915a.88889.88889,0,0,1-.88889.88889h-9.89619A.88888.88888,0,0,1,295.36336,68.56915Z"></path>
    <path class="logo-wordmark--urls" fill="#7b79ff" d="M323.64949,41.90473q0,1.16826,1.98578,1.90669,1.9832.74274,4.7865,1.47859a43.53764,43.53764,0,0,1,5.60316,1.90841,11.31321,11.31321,0,0,1,4.78649,3.85292,11.01473,11.01473,0,0,1,1.98578,6.731q0,6.30548-4.66958,9.53517a19.77325,19.77325,0,0,1-11.51923,3.23054q-11.781,0-16.34769-8.4982a.89143.89143,0,0,1,.35436-1.186l8.497-4.83607a.87864.87864,0,0,1,1.2319.383q1.71652,3.70869,6.26442,3.70805,4.20108,0,4.20194-2.41388,0-1.16826-1.98406-1.94624a44.7066,44.7066,0,0,0-4.7865-1.51641,39.96364,39.96364,0,0,1-5.60488-1.94623,12.001,12.001,0,0,1-4.78649-3.77556,9.99635,9.99635,0,0,1-1.98406-6.30463,11.14722,11.14722,0,0,1,4.39622-9.41653,17.40235,17.40235,0,0,1,10.859-3.34746,18.2264,18.2264,0,0,1,8.79416,2.14052,16.25988,16.25988,0,0,1,5.8702,5.37672.88913.88913,0,0,1-.33081,1.26529l-8.38,4.51834a.89732.89732,0,0,1-1.17264-.32037,5.514,5.514,0,0,0-4.78087-2.706Q323.64949,39.7264,323.64949,41.90473Z"></path>
    </g>
    </g>
    <g class="logo-icon">
    <path class="logo-icon--circle" fill="#7b79ff" d="M50,0C22.4,0,0,22.4,0,50s22.4,50,50,50s50-22.4,50-50S77.6,0,50,0z M55.5,65.5l-7.7,7.7
            c-5.5,5.6-14.5,6-20.5,0.9c-0.2-0.2-0.5-0.4-0.7-0.7c-5.9-5.8-5.9-15.3-0.1-21.1l7.9-7.9c1.5-1.5,3.8-1.5,5.3,0
            c1.5,1.5,1.5,3.8,0,5.3l-7.9,7.9c-0.1,0.1-0.1,0.1-0.2,0.2c-0.7,0.8-1.2,1.6-1.5,2.5c-1,2.7-0.3,5.9,1.9,8c3,2.7,7.6,2.6,10.5-0.3
            l7.8-7.8c1.5-1.5,3.8-1.5,5.3,0C57,61.7,57,64.1,55.5,65.5z M44.2,50.5l9.8-9.8c1.5-1.5,3.8-1.5,5.3,0c1.5,1.5,1.5,3.8,0,5.3
            L46,59.2c-1.5,1.5-3.8,1.5-5.3,0c-1.5-1.5-1.5-3.8,0-5.3L44.2,50.5z M73.2,47.8l-7.7,7.7c-1.5,1.5-3.8,1.5-5.3,0
            c-1.5-1.5-1.5-3.8,0-5.3l7.9-7.9c0.1-0.1,0.1-0.1,0.2-0.2c2.8-3,2.6-7.7-0.4-10.5c-1.4-1.2-3.1-1.9-4.8-1.9l-4,1
            c-0.6,0.3-1.1,0.7-1.6,1.2l-7.8,7.8c0,0,0,0,0,0c-1.5,1.5-3.8,1.5-5.3,0c0,0,0,0,0,0c-1.5-1.5-1.5-3.8,0-5.3l7.9-7.9
            c0.1-0.1,0.2-0.2,0.4-0.3c6-5.6,15.5-5.3,21.1,0.7C79.3,32.9,79,42.1,73.2,47.8z"></path>
    <path class="logo-icon--link" fill="#ffffff" d="M55.5,60.3c1.5,1.5,1.5,3.8,0,5.3l-7.7,7.7c-5.5,5.6-14.5,6-20.5,0.9c-0.2-0.2-0.5-0.4-0.7-0.7
            c-5.9-5.8-5.9-15.3-0.1-21.1l7.9-7.9c1.5-1.5,3.8-1.5,5.3,0c1.5,1.5,1.5,3.8,0,5.3l-7.9,7.9c-0.1,0.1-0.1,0.1-0.2,0.2
            c-0.7,0.8-1.2,1.6-1.5,2.5c-1,2.7-0.3,5.9,1.9,8c3,2.7,7.6,2.6,10.5-0.3l7.8-7.8C51.7,58.8,54.1,58.8,55.5,60.3z M40.8,59.2
            c1.5,1.5,3.8,1.5,5.3,0L59.2,46c1.5-1.5,1.5-3.8,0-5.3c-1.5-1.5-3.8-1.5-5.3,0l-9.8,9.8l-3.4,3.4C39.3,55.4,39.3,57.8,40.8,59.2z
             M73.8,26.9c-5.6-6-15.1-6.4-21.1-0.7c-0.1,0.1-0.2,0.2-0.4,0.3l-7.9,7.9c-1.5,1.5-1.5,3.8,0,5.3c0,0,0,0,0,0c1.5,1.5,3.8,1.5,5.3,0
            c0,0,0,0,0,0l7.8-7.8c0.5-0.5,1-0.9,1.6-1.2l4-1c1.7,0,3.5,0.7,4.8,1.9c3,2.8,3.2,7.5,0.4,10.5c-0.1,0.1-0.1,0.1-0.2,0.2l-7.9,7.9
            c-1.5,1.5-1.5,3.8,0,5.3c1.5,1.5,3.8,1.5,5.3,0l7.7-7.7C79,42.1,79.3,32.9,73.8,26.9z"></path>
    </g>
    </svg>