<?xml version="1.0" standalone="no"?><svg xmlns="http://www.w3.org/2000/svg" viewBox="0 0 1440 320"><path fill="#7979ff" fill-opacity="1" d="M0,192L34.3,197.3C68.6,203,137,213,206,197.3C274.3,181,343,139,411,106.7C480,75,549,53,617,69.3C685.7,85,754,139,823,138.7C891.4,139,960,85,1029,96C1097.1,107,1166,181,1234,218.7C1302.9,256,1371,256,1406,256L1440,256L1440,320L1405.7,320C1371.4,320,1303,320,1234,320C1165.7,320,1097,320,1029,320C960,320,891,320,823,320C754.3,320,686,320,617,320C548.6,320,480,320,411,320C342.9,320,274,320,206,320C137.1,320,69,320,34,320L0,320Z"></path></svg>